<svg width="256" height="256" viewBox="0 0 256 256" fill="none" xmlns="http://www.w3.org/2000/svg">
  <rect width="256" height="256" rx="48" fill="#120701"/>
  <rect x="18" y="18" width="220" height="220" rx="38" fill="url(#bg)"/>
  <path d="M128 60C160 60 186 86 186 118C186 160 140 194 128 202C116 194 70 160 70 118C70 86 96 60 128 60Z" fill="#FFF3DC" opacity="0.18"/>
  <path d="M128 76C151 76 170 95 170 118C170 146 142 170 128 180C114 170 86 146 86 118C86 95 105 76 128 76Z" fill="#FFF3DC"/>
  <circle cx="128" cy="118" r="22" fill="#C1121F"/>
  <path d="M104 184L128 164L152 184" stroke="#F4A300" stroke-width="10" stroke-linecap="round" stroke-linejoin="round"/>
  <text x="128" y="220" text-anchor="middle" fill="#FFF3DC" font-size="22" font-family="Arial, sans-serif" font-weight="700">GUIAS</text>
  <defs>
    <linearGradient id="bg" x1="128" y1="18" x2="128" y2="238" gradientUnits="userSpaceOnUse">
      <stop stop-color="#245F8F"/>
      <stop offset="1" stop-color="#102B43"/>
    </linearGradient>
  </defs>
</svg>
