<svg width="256" height="256" viewBox="0 0 256 256" fill="none" xmlns="http://www.w3.org/2000/svg">
  <rect width="256" height="256" rx="48" fill="#2A1407"/>
  <rect x="18" y="18" width="220" height="220" rx="38" fill="url(#bg)"/>
  <circle cx="128" cy="106" r="56" fill="#FFF1D9" opacity="0.18"/>
  <path d="M66 128C66 96 92 70 124 70C156 70 182 96 182 128V132H66V128Z" fill="#F0C46A"/>
  <path d="M84 132H172C170 164 149 188 128 188C107 188 86 164 84 132Z" fill="#D47A2F"/>
  <circle cx="104" cy="118" r="6" fill="#C1121F"/>
  <circle cx="129" cy="110" r="6" fill="#2D6A4F"/>
  <circle cx="149" cy="123" r="5" fill="#C1121F"/>
  <path d="M88 152C102 162 115 166 128 166C141 166 154 162 168 152" stroke="#FFF3DC" stroke-width="8" stroke-linecap="round"/>
  <text x="128" y="220" text-anchor="middle" fill="#FFF3DC" font-size="22" font-family="Arial, sans-serif" font-weight="700">SABORES</text>
  <defs>
    <linearGradient id="bg" x1="128" y1="18" x2="128" y2="238" gradientUnits="userSpaceOnUse">
      <stop stop-color="#C1121F"/>
      <stop offset="1" stop-color="#5A120B"/>
    </linearGradient>
  </defs>
</svg>
