<svg xmlns="http://www.w3.org/2000/svg" viewBox="0 0 64 64">
  <defs>
    <linearGradient id="bg" x1="0" x2="1" y1="0" y2="1">
      <stop offset="0%" stop-color="#6e2436"/>
      <stop offset="100%" stop-color="#2a120c"/>
    </linearGradient>
  </defs>
  <rect width="64" height="64" rx="16" fill="url(#bg)"/>
  <circle cx="24" cy="18" r="6" fill="#f4c16c"/>
  <circle cx="36" cy="18" r="4.2" fill="#f4c16c"/>
  <circle cx="45.5" cy="18" r="3.5" fill="#f4c16c"/>
  <path d="M15 44c0-9 6.7-15 16.3-15 5.8 0 10.8 2.1 14.1 6l-4.8 4.4c-2.2-2.5-5-3.8-8.9-3.8-6 0-10.2 3.8-10.2 8.4 0 4.8 4.3 8.4 10.3 8.4 3.8 0 6.7-1.3 8.8-3.8l4.8 4.4c-3.3 3.9-8.2 6-14.1 6C21.7 59 15 53 15 44Z" fill="#fff3dc"/>
  <path d="M46.5 29h4.5v30h-4.5z" fill="#fff3dc"/>
</svg>
